<svg width="64" height="64" viewBox="0 0 64 64" fill="none" xmlns="http://www.w3.org/2000/svg">
<path d="M51.7779 17.8104C54.5251 20.7269 56.0003 24 56.0003 29.3059C56.0003 38.6376 49.4496 47.0035 39.9187 51.1382L37.5381 47.4646C46.4323 42.6523 48.1704 36.4104 48.8653 32.4747C47.4333 33.2152 45.5587 33.4755 43.7211 33.3054C38.9093 32.8592 35.1171 28.9091 35.1171 24C35.1171 18.8454 39.2957 14.6667 44.4504 14.6667C47.312 14.6667 50.0483 15.9746 51.7779 17.8104ZM25.1112 17.8104C27.8584 20.7269 29.3336 24 29.3336 29.3059C29.3336 38.6376 22.7829 47.0035 13.252 51.1382L10.8715 47.4646C19.7655 42.6523 21.5038 36.4104 22.1986 32.4747C20.7666 33.2152 18.8921 33.4755 17.0544 33.3054C12.2427 32.8592 8.45053 28.9091 8.45053 24C8.45053 18.8454 12.6292 14.6667 17.7839 14.6667C20.6453 14.6667 23.3817 15.9746 25.1112 17.8104Z" fill="#E43767"/>
</svg>
