<svg width="37" height="38" viewBox="0 0 37 38" fill="none" xmlns="http://www.w3.org/2000/svg">
<path d="M36.2269 11.5594V11.6883C36.2269 13.2069 36.2269 13.968 35.8614 14.5896C35.4959 15.2111 34.8302 15.5802 33.5023 16.3201L32.102 17.097C33.0661 13.8338 33.3893 10.3269 33.5076 7.3285L33.5252 6.93826L33.5288 6.84644C34.6783 7.24551 35.3246 7.54394 35.7272 8.10194C36.2269 8.7959 36.2269 9.71766 36.2269 11.5594ZM0.910496 11.5594V11.6883C0.910496 13.2069 0.910496 13.968 1.27602 14.5896C1.64155 15.2111 2.30726 15.5802 3.63516 16.3201L5.03722 17.097C4.07132 13.8338 3.74817 10.3269 3.62986 7.3285L3.6122 6.93826L3.61044 6.84644C2.45912 7.24551 1.81283 7.54394 1.41022 8.10194C0.910496 8.7959 0.910496 9.71943 0.910496 11.5594Z" fill="white"/>
<path fill-rule="evenodd" clip-rule="evenodd" d="M18.568 0.679859C21.7183 0.679859 24.3123 0.957093 26.297 1.2926C28.3083 1.63164 29.3131 1.80116 30.1536 2.83593C30.9941 3.8707 30.9482 4.98846 30.8599 7.224C30.5562 14.9036 28.8999 24.4937 19.8924 25.3413V31.5817H22.4175C22.8256 31.582 23.221 31.7236 23.5365 31.9824C23.8519 32.2412 24.0681 32.6013 24.148 33.0015L24.4835 34.6719H29.163C29.5142 34.6719 29.8511 34.8115 30.0994 35.0598C30.3478 35.3082 30.4873 35.6451 30.4873 35.9963C30.4873 36.3475 30.3478 36.6844 30.0994 36.9328C29.8511 37.1811 29.5142 37.3207 29.163 37.3207H7.9731C7.62186 37.3207 7.285 37.1811 7.03663 36.9328C6.78826 36.6844 6.64873 36.3475 6.64873 35.9963C6.64873 35.6451 6.78826 35.3082 7.03663 35.0598C7.285 34.8115 7.62186 34.6719 7.9731 34.6719H12.6525L12.988 33.0015C13.068 32.6013 13.2841 32.2412 13.5996 31.9824C13.9151 31.7236 14.3105 31.582 14.7185 31.5817H17.2437V25.3413C8.23797 24.4937 6.58163 14.9018 6.27791 7.224C6.18785 4.98846 6.14371 3.86893 6.98424 2.83593C7.82301 1.80116 8.82776 1.63164 10.839 1.2926C13.3939 0.873881 15.9791 0.668924 18.568 0.679859ZM20.2491 8.09455L20.076 7.78376C19.405 6.5777 19.0695 5.97733 18.568 5.97733C18.0665 5.97733 17.731 6.5777 17.06 7.78376L16.887 8.09455C16.6963 8.43712 16.6009 8.60663 16.4526 8.71965C16.3025 8.83266 16.1171 8.87504 15.7463 8.95803L15.4107 9.03573C14.1076 9.33062 13.456 9.47718 13.3006 9.97515C13.1452 10.4749 13.5902 10.994 14.4784 12.0323L14.7079 12.3007C14.9605 12.5956 15.0876 12.7422 15.1441 12.9258C15.2006 13.1095 15.1812 13.3055 15.1441 13.6993L15.1088 14.0577C14.9746 15.4439 14.9075 16.1379 15.3119 16.4451C15.718 16.7524 16.329 16.4716 17.5492 15.9101L17.8635 15.7653C18.2113 15.6064 18.3844 15.5269 18.568 15.5269C18.7517 15.5269 18.9247 15.6064 19.2726 15.7653L19.5869 15.9101C20.8071 16.4734 21.4181 16.7524 21.8242 16.4451C22.2303 16.1379 22.1615 15.4439 22.0273 14.0577L21.992 13.6993C21.9549 13.3055 21.9355 13.1095 21.992 12.9258C22.0485 12.744 22.1756 12.5956 22.4281 12.3007L22.6577 12.0323C23.5459 10.994 23.9909 10.4749 23.8355 9.97515C23.6801 9.47718 23.0285 9.33062 21.7253 9.03573L21.3898 8.95803C21.019 8.87504 20.8336 8.83442 20.6835 8.71965C20.5352 8.60663 20.4398 8.43712 20.2491 8.09455Z" fill="white"/>
</svg>
