<svg width="14" height="14" viewBox="0 0 14 14" fill="none" xmlns="http://www.w3.org/2000/svg">
<g id="copyright-line">
<path id="Vector" d="M9.50116 5.49959C8.99091 4.6513 8.06137 4.08342 7 4.08342C5.38999 4.08342 4.08333 5.39008 4.08333 7.00008C4.08333 8.61008 5.38999 9.91675 7 9.91675C8.06137 9.91675 8.99091 9.34887 9.50116 8.50059L8.50086 7.90087C8.19484 8.40977 7.63741 8.75008 7 8.75008C6.03312 8.75008 5.25 7.96696 5.25 7.00008C5.25 6.03321 6.03312 5.25008 7 5.25008C7.63758 5.25008 8.19531 5.59067 8.50121 6.09988L9.50116 5.49959ZM12.8333 7.00008C12.8333 3.78007 10.22 1.16675 7 1.16675C3.77999 1.16675 1.16666 3.78007 1.16666 7.00008C1.16666 10.2201 3.77999 12.8334 7 12.8334C10.22 12.8334 12.8333 10.2201 12.8333 7.00008ZM2.33333 7.00008C2.33333 4.42172 4.42164 2.33341 7 2.33341C9.57833 2.33341 11.6667 4.42172 11.6667 7.00008C11.6667 9.57841 9.57833 11.6667 7 11.6667C4.42164 11.6667 2.33333 9.57841 2.33333 7.00008Z" fill="white"/>
</g>
</svg>
