<svg width="28" height="28" viewBox="0 0 28 28" fill="none" xmlns="http://www.w3.org/2000/svg">
<g filter="url(#filter0_d_1_287)">
<circle cx="12" cy="12" r="12" fill="white"/>
<circle cx="12" cy="12" r="11.5" stroke="#1F6BBD" stroke-opacity="0.2"/>
</g>
<path d="M11.8333 10.0833C10.8665 10.0833 10.0833 10.8668 10.0833 11.8333C10.0833 12.8001 10.8668 13.5833 11.8333 13.5833C12.8001 13.5833 13.5833 12.7999 13.5833 11.8333C13.5833 10.8666 12.7999 10.0833 11.8333 10.0833ZM11.8333 8.91667C13.4436 8.91667 14.75 10.2216 14.75 11.8333C14.75 13.4436 13.445 14.75 11.8333 14.75C10.2231 14.75 8.91667 13.445 8.91667 11.8333C8.91667 10.2231 10.2216 8.91667 11.8333 8.91667ZM15.625 8.77034C15.625 9.1729 15.2979 9.49952 14.8958 9.49952C14.4933 9.49952 14.1667 9.1724 14.1667 8.77034C14.1667 8.36828 14.4938 8.04167 14.8958 8.04167C15.2974 8.04116 15.625 8.36828 15.625 8.77034ZM11.8333 7.16667C10.3899 7.16667 10.1546 7.17049 9.48325 7.20038C9.02585 7.22186 8.71924 7.28337 8.43436 7.39397C8.18119 7.49216 7.99856 7.60941 7.80398 7.80399C7.60865 7.99932 7.49162 8.18145 7.39383 8.43473C7.28297 8.72027 7.22147 9.0264 7.20038 9.48317C7.1702 10.1272 7.16667 10.3523 7.16667 11.8333C7.16667 13.2768 7.17049 13.5121 7.20038 14.1834C7.22186 14.6406 7.28346 14.9476 7.39379 15.2318C7.49224 15.4854 7.60972 15.6684 7.80336 15.8621C7.99946 16.0579 8.18214 16.1753 8.43302 16.2722C8.72137 16.3836 9.02779 16.4452 9.48316 16.4663C10.1272 16.4964 10.3523 16.5 11.8333 16.5C13.2768 16.5 13.5121 16.4962 14.1834 16.4663C14.6396 16.4449 14.9469 16.3831 15.2318 16.2729C15.4847 16.1747 15.6683 16.0568 15.8621 15.8633C16.0582 15.6669 16.1754 15.4847 16.2723 15.2332C16.3835 14.9459 16.4452 14.6391 16.4663 14.1835C16.4965 13.5395 16.5 13.3144 16.5 11.8333C16.5 10.3899 16.4962 10.1546 16.4663 9.4833C16.4448 9.02695 16.3831 8.7192 16.2727 8.43436C16.1747 8.18189 16.0571 7.9987 15.8627 7.80399C15.667 7.60834 15.4854 7.49154 15.2319 7.39383C14.9466 7.28307 14.64 7.22148 14.1835 7.20039C13.5395 7.1702 13.3144 7.16667 11.8333 7.16667ZM11.8333 6C13.418 6 13.6159 6.00583 14.2381 6.035C14.8589 6.06368 15.2823 6.16188 15.6542 6.30625C16.0387 6.45452 16.3634 6.65479 16.6876 6.97903C17.0114 7.30327 17.2117 7.62896 17.3604 8.0125C17.5043 8.38389 17.6025 8.80778 17.6317 9.42854C17.6594 10.0508 17.6667 10.2486 17.6667 11.8333C17.6667 13.4181 17.6608 13.6159 17.6317 14.2381C17.603 14.8589 17.5043 15.2823 17.3604 15.6542C17.2121 16.0387 17.0114 16.3634 16.6876 16.6877C16.3634 17.0114 16.0372 17.2117 15.6542 17.3604C15.2823 17.5043 14.8589 17.6025 14.2381 17.6317C13.6159 17.6594 13.418 17.6667 11.8333 17.6667C10.2486 17.6667 10.0508 17.6608 9.42854 17.6317C8.80778 17.603 8.38486 17.5043 8.0125 17.3604C7.62847 17.2121 7.30326 17.0114 6.97903 16.6877C6.65479 16.3634 6.455 16.0372 6.30625 15.6542C6.16188 15.2823 6.06417 14.8589 6.035 14.2381C6.00729 13.6159 6 13.4181 6 11.8333C6 10.2486 6.00583 10.0508 6.035 9.42854C6.06368 8.80729 6.16188 8.38438 6.30625 8.0125C6.45451 7.62847 6.65479 7.30327 6.97903 6.97903C7.30326 6.65479 7.62896 6.455 8.0125 6.30625C8.38438 6.16188 8.80729 6.06417 9.42854 6.035C10.0508 6.00729 10.2486 6 11.8333 6Z" fill="#E43767"/>
<defs>
<filter id="filter0_d_1_287" x="0" y="0" width="28" height="28" filterUnits="userSpaceOnUse" color-interpolation-filters="sRGB">
<feFlood flood-opacity="0" result="BackgroundImageFix"/>
<feColorMatrix in="SourceAlpha" type="matrix" values="0 0 0 0 0 0 0 0 0 0 0 0 0 0 0 0 0 0 127 0" result="hardAlpha"/>
<feOffset dx="2" dy="2"/>
<feGaussianBlur stdDeviation="1"/>
<feComposite in2="hardAlpha" operator="out"/>
<feColorMatrix type="matrix" values="0 0 0 0 0 0 0 0 0 0 0 0 0 0 0 0 0 0 0.1 0"/>
<feBlend mode="normal" in2="BackgroundImageFix" result="effect1_dropShadow_1_287"/>
<feBlend mode="normal" in="SourceGraphic" in2="effect1_dropShadow_1_287" result="shape"/>
</filter>
</defs>
</svg>
