<svg width="37" height="38" viewBox="0 0 37 38" fill="none" xmlns="http://www.w3.org/2000/svg">
<path d="M18.5763 0.679443C8.45815 0.679443 0.255737 8.88186 0.255737 19.0001C0.255737 29.1183 8.45815 37.3207 18.5763 37.3207C28.6945 37.3207 36.897 29.1183 36.897 19.0001C36.897 8.88186 28.6945 0.679443 18.5763 0.679443ZM17.9546 7.45126H19.1981V11.1167H17.9546V7.45126ZM12.8691 8.55157L14.9713 11.5528L13.9515 12.2685L11.8493 9.26723L12.8691 8.55157ZM24.2836 8.55157L25.3034 9.26723L23.2012 12.2685L22.1814 11.5528L24.2836 8.55157ZM18.5763 12.1186C21.6223 12.1186 24.0913 13.9675 24.0913 16.2493L20.9581 25.7383H16.1946L13.0614 16.2493C13.0614 13.9674 15.5306 12.1186 18.5763 12.1186ZM8.67131 13.219L12.1154 14.4736L11.6882 15.6432L8.24639 14.3886L8.67131 13.219ZM28.4814 13.219L28.9063 14.3886L25.4622 15.6432L25.0373 14.4736L28.4814 13.219ZM11.9499 18.5707L12.2719 19.7739L8.73171 20.7221L8.40966 19.5189L11.9499 18.5707ZM25.2028 18.5707L28.743 19.5189L28.421 20.7221L24.8808 19.7739L25.2028 18.5707ZM16.1253 26.4316H21.0275V28.0798H16.1253V26.4316ZM16.1253 28.9006H21.0275V30.5488H16.1253V28.9006Z" fill="white"/>
</svg>
