<svg width="44" height="44" viewBox="0 0 44 44" fill="none" xmlns="http://www.w3.org/2000/svg">
<circle cx="22" cy="22" r="22" fill="#FFF0F4"/>
<path d="M28.7639 24.8469C30.182 21.4885 28.9092 17.5214 25.6705 15.6516C23.3302 14.3004 20.5546 14.3858 18.365 15.6342L17.4553 14.0422C20.1923 12.4816 23.6617 12.3749 26.5872 14.0639C30.7037 16.4405 32.2794 21.5277 30.3616 25.7692L31.5915 26.4794L27.7735 28.509L27.6223 24.1877L28.7639 24.8469ZM15.2438 19.158C13.8257 22.5164 15.0986 26.4834 18.3372 28.3532C20.6775 29.7045 23.453 29.6191 25.6426 28.3707L26.5523 29.9627C23.8153 31.5232 20.346 31.6299 17.4205 29.941C13.3041 27.5643 11.7284 22.4771 13.6462 18.2356L12.4162 17.5254L16.2342 15.4959L16.3855 19.8171L15.2438 19.158ZM18.7955 23.8357H23.8372C24.0904 23.8357 24.2955 23.6306 24.2955 23.3774C24.2955 23.1243 24.0904 22.919 23.8372 22.919H20.1705C18.9049 22.919 17.8789 21.8931 17.8789 20.6274C17.8789 19.3618 18.9049 18.3358 20.1705 18.3358H21.0872V17.4191H22.9205V18.3358H25.2122V20.169H20.1705C19.9174 20.169 19.7122 20.3743 19.7122 20.6274C19.7122 20.8806 19.9174 21.0857 20.1705 21.0857H23.8372C25.1028 21.0857 26.1288 22.1117 26.1288 23.3774C26.1288 24.6431 25.1028 25.669 23.8372 25.669H22.9205V26.5857H21.0872V25.669H18.7955V23.8357Z" fill="#E43767"/>
</svg>
