<svg width="44" height="37" viewBox="0 0 44 37" fill="none" xmlns="http://www.w3.org/2000/svg">
<path d="M40.6298 9.16031H31.4695V3.05344C31.4695 2.24361 31.1478 1.46696 30.5751 0.89433C30.0025 0.3217 29.2259 0 28.416 0H16.2023C15.3925 0 14.6158 0.3217 14.0432 0.89433C13.4706 1.46696 13.1489 2.24361 13.1489 3.05344V9.16031H3.98855C3.17873 9.16031 2.40208 9.48201 1.82945 10.0546C1.25682 10.6273 0.93512 11.4039 0.93512 12.2137V33.5878C0.93512 34.3976 1.25682 35.1743 1.82945 35.7469C2.40208 36.3195 3.17873 36.6412 3.98855 36.6412H40.6298C41.4396 36.6412 42.2163 36.3195 42.7889 35.7469C43.3615 35.1743 43.6832 34.3976 43.6832 33.5878V12.2137C43.6832 11.4039 43.3615 10.6273 42.7889 10.0546C42.2163 9.48201 41.4396 9.16031 40.6298 9.16031ZM16.2023 3.05344H28.416V9.16031H16.2023V3.05344ZM3.98855 33.5878V12.2137H40.6298V33.5878H3.98855Z" fill="white"/>
</svg>
